<svg width="25" height="30" viewBox="0 0 25 30" fill="none" xmlns="http://www.w3.org/2000/svg">
<path d="M20.294 30C20.014 30 19.832 29.86 19.748 29.58L18.362 25.086C18.306 24.974 18.236 24.918 18.152 24.918H7.064C6.98 24.918 6.91 24.974 6.854 25.086L5.468 29.58C5.384 29.86 5.202 30 4.922 30H0.722C0.554 30 0.428 29.958 0.344 29.874C0.26 29.762 0.246 29.608 0.302 29.412L9.416 1.02C9.5 0.739998 9.682 0.599998 9.962 0.599998H15.212C15.492 0.599998 15.674 0.739998 15.758 1.02L24.914 29.412C24.942 29.468 24.956 29.538 24.956 29.622C24.956 29.874 24.802 30 24.494 30H20.294ZM8.156 20.844C8.128 21.012 8.184 21.096 8.324 21.096H16.85C17.018 21.096 17.074 21.012 17.018 20.844L12.692 6.774C12.664 6.662 12.622 6.606 12.566 6.606C12.51 6.606 12.468 6.662 12.44 6.774L8.156 20.844Z" fill="#2F2E2E"/>
</svg>
